<svg xmlns="http://www.w3.org/2000/svg" xmlns:xlink="http://www.w3.org/1999/xlink" xmlns:lucid="lucid" width="1760" height="1360"><g transform="translate(0 0)" lucid:page-tab-id="0_0"><path d="M453.15 78.58c0-4.42 3.58-8 8-8h836.75c4.4 0 8 3.58 8 8v25.15c0 4.42-3.6 8-8 8H461.15c-4.42 0-8-3.58-8-8z" stroke="#000" stroke-opacity="0" stroke-width="2" fill="#fff" fill-opacity="0"/><use xlink:href="#a" transform="matrix(1,0,0,1,457.14655278534315,74.57761197839864) translate(364.0420987654321 23.657777777777778)"/><path d="M709.44 110.4h347.9M709.47 110.4h-1.03M1057.3 110.4h1.03" stroke="#a9afb8" stroke-width="2" fill="none"/><path d="M453.15 119.73c0-4.42 3.58-8 8-8h837.7c4.42 0 8 3.58 8 8v2.85c0 4.42-3.58 8-8 8h-837.7c-4.42 0-8-3.58-8-8z" stroke="#000" stroke-opacity="0" stroke-width="2" fill="#fff" fill-opacity="0"/><use xlink:href="#b" transform="matrix(1,0,0,1,457.1465527853436,115.73283593529744) translate(237.37949588477375 14.917037037037037)"/><use xlink:href="#c" transform="matrix(1,0,0,1,457.1465527853436,115.73283593529744) translate(303.2810390946503 14.917037037037037)"/><use xlink:href="#d" transform="matrix(1,0,0,1,457.1465527853436,115.73283593529744) translate(356.77558641975315 14.917037037037037)"/><use xlink:href="#e" transform="matrix(1,0,0,1,457.1465527853436,115.73283593529744) translate(505.91447530864195 14.917037037037037)"/><use xlink:href="#f" transform="matrix(1,0,0,1,457.1465527853436,115.73283593529744) translate(518.3639609053498 14.917037037037037)"/><use xlink:href="#g" transform="matrix(1,0,0,1,457.1465527853436,115.73283593529744) translate(555.7549074074074 14.917037037037037)"/><use xlink:href="#h" transform="matrix(1,0,0,1,457.1465527853436,115.73283593529744) translate(581.2487345679012 14.917037037037037)"/><path d="M908 159.88c17.67 0 32 17.9 32 40s-14.33 40-32 40h-96c-17.67 0-32-17.9-32-40s14.33-40 32-40z" stroke="#333" fill="#ef8d22"/><use xlink:href="#i" transform="matrix(1,0,0,1,785,164.88345213953428) translate(56.025 38.6)"/><path d="M780 288c0-4.42 3.58-8 8-8h144c4.42 0 8 3.58 8 8v112c-26.72-20.04-43.36-20.04-53.44-20.04-16 0-37.28 20.04-53.28 20.04-9.92 0-26.72 0-53.28-20.04z" stroke="#333" fill="#d1bcd2"/><use xlink:href="#j" transform="matrix(1,0,0,1,785,285) translate(33.075 48.6)"/><path d="M860 279v-38.9c0-.33-.27-.6-.6-.6-.32 0-.6.27-.6.6v23.02" stroke="#333" fill="none"/><path d="M860.5 279.5h-1v-.5h1z" fill="#333"/><path d="M858.8 277.88l-4.62-14.26h9.27z" stroke="#333" fill="#333"/><path d="M853.6 444.92c3.53-2.65 9.27-2.65 12.8 0l67.2 50.4c3.53 2.65 3.53 6.95 0 9.6l-67.2 50.4c-3.53 2.65-9.27 2.65-12.8 0l-67.2-50.4c-3.53-2.65-3.53-6.95 0-9.6z" stroke="#333" fill="#ffbbb1"/><use xlink:href="#k" transform="matrix(1,0,0,1,785,445.11654786046574) translate(56.5 58.6)"/><path d="M860 390.82v35.33" stroke="#333" fill="none"/><path d="M860.5 390.84h-1v-.27l1-.5z" fill="#333"/><path d="M860 440.9l-4.64-14.25h9.28z" stroke="#333" fill="#333"/><path d="M1000 448.12c0-4.42 3.58-8 8-8h84c4.42 0 8 3.58 8 8V540c-16.7-16.68-27.1-16.68-33.4-16.68-10 0-23.3 16.68-33.3 16.68-6.2 0-16.7 0-33.3-16.68z" stroke="#333" fill="#d1bcd2"/><use xlink:href="#l" transform="matrix(1,0,0,1,1005,445.11654786046574) translate(23.025 40.6)"/><path d="M560 448.12c0-4.42 3.58-8 8-8h104c4.42 0 8 3.58 8 8V520c-20.04-13.34-32.52-13.34-40.08-13.34-12 0-27.96 13.34-39.96 13.34-7.44 0-20.04 0-39.96-13.34z" stroke="#333" fill="#d1bcd2"/><use xlink:href="#m" transform="matrix(1,0,0,1,565,445.11654786046574) translate(25.025 32.1)"/><path d="M880 708.23c0 6.63-26.86 12-60 12s-60-5.37-60-12v-96c0-6.62 26.86-12 60-12s60 5.38 60 12z" stroke="#333" fill="#ccc"/><path d="M880 612.23c0 6.63-26.86 12-60 12s-60-5.37-60-12" stroke="#333" fill="none"/><use xlink:href="#n" transform="matrix(1,0,0,1,765,629.2330957209315) translate(21.074999999999996 46.6)"/><use xlink:href="#o" transform="matrix(1,0,0,1,765,629.2330957209315) translate(63.975 46.6)"/><path d="M620.5 648.2l.4 3.02 1.14 2.75 1.83 2.4 2.4 1.83 2.75 1.14 3 .4h111.1v1H631.97l-3.2-.43-3-1.23-2.6-2-2-2.6-1.25-3-.42-3.2V514.1h1z" fill="#333"/><path d="M620.5 514.12h-1v-.3l1-.43zM757.88 660.23l-14.26 4.64v-9.27z" fill="#333"/><path d="M759.5 660.23l-16.38 5.33V654.9zm-15.38 3.95l12.14-3.95-12.14-3.94zM1050.5 648.27l-.42 3.2-1.24 3-2 2.6-2.6 2-3 1.24-3.2.43H896.87v-1h141.1l3-.4 2.76-1.13 2.4-1.84 1.82-2.4 1.14-2.74.4-3.02V532.54h1z" fill="#333"/><path d="M1050.5 532.56h-1v-.2l1-.65zM896.38 664.87l-14.26-4.64 14.26-4.63z" fill="#333"/><path d="M896.88 665.56l-16.38-5.33 16.38-5.32zm-13.14-5.33l12.14 3.95v-7.9z" fill="#333"/><path d="M937.14 500.12h25.9c2.78 0 5.03-2.26 5.03-5.03 0-2.8 2.25-5.04 5.03-5.04h10.02" stroke="#333" fill="none"/><path d="M937.15 500.62h-.53l.04-1h.5z" fill="#333"/><path d="M997.88 490.06l-14.26 4.63v-9.28z" stroke="#333" fill="#333"/><path d="M782.86 500.12h-40.9c-5.54 0-10.03-4.5-10.03-10.03 0-5.55-4.5-10.04-10.03-10.04h-25.02" stroke="#333" fill="none"/><path d="M783.34 500.62h-.5v-1h.54z" fill="#333"/><path d="M682.12 480.06l14.26-4.64v9.27z" stroke="#333" fill="#333"/><path d="M620.5 559.96l.4 3.02 1.14 2.75 1.83 2.4 2.4 1.83 2.75 1.14 3 .4h123.5v1H631.96l-3.2-.43-3-1.24-2.6-2-2-2.6-1.25-3-.42-3.2V514.1h1zm389.36.07l-.42 3.2-1.25 3-2 2.6-2.6 2-3 1.24-3.2.42H855.45v-1h141.86l3.02-.4 2.76-1.14 2.38-1.84 1.84-2.4 1.14-2.74.4-3.02v-11.58h1z" fill="#333"/><path d="M620.5 514.12h-1v-.3l1-.43zM1014 547.88h-9.28l4.64-14.27z" fill="#333"/><path d="M1014.68 548.38h-10.65l5.33-16.4zm-9.27-1h7.9l-3.94-12.15z" fill="#333"/><use xlink:href="#p" transform="matrix(1,0,0,1,755.5084708002203,561.1933195998499) translate(0.005000000000002558 14.4)"/><use xlink:href="#q" transform="matrix(1,0,0,1,755.5084708002203,561.1933195998499) translate(42.955000000000005 14.4)"/><path d="M1160 668c0-4.42 3.58-8 8-8h144c4.42 0 8 3.58 8 8v112c-26.72-20.04-43.36-20.04-53.44-20.04-16 0-37.28 20.04-53.28 20.04-9.92 0-26.72 0-53.28-20.04z" stroke="#333" fill="#d1bcd2"/><use xlink:href="#r" transform="matrix(1,0,0,1,1165,665) translate(30.049999999999997 37.8)"/><use xlink:href="#s" transform="matrix(1,0,0,1,1165,665) translate(38.099999999999994 59.4)"/><path d="M1101 490.15h127c6.63 0 12 5.37 12 12v140.97" stroke="#333" fill="none"/><path d="M1101 490.65h-.5v-1h.5z" fill="#333"/><path d="M1240 657.88l-4.64-14.26h9.28z" stroke="#333" fill="#333"/><path d="M979.36 788c0-4.42 3.6-8 8-8H1072c4.42 0 8 3.58 8 8v61.54c-16.8-11.6-27.27-11.6-33.6-11.6-10.08 0-23.46 11.6-33.52 11.6-6.24 0-16.8 0-33.52-11.6z" stroke="#333" fill="#d1bcd2"/><use xlink:href="#t" transform="matrix(1,0,0,1,984.3639975550118,785) translate(30 27.6)"/><path d="M1109.68 828c0-4.42 3.58-8 8-8h84.64c4.42 0 8 3.58 8 8v52c-16.8-10.02-27.27-10.02-33.6-10.02-10.08 0-23.46 10.02-33.53 10.02-6.25 0-16.8 0-33.52-10.02z" stroke="#333" fill="#d1bcd2"/><use xlink:href="#u" transform="matrix(1,0,0,1,1114.681998777506,825) translate(30.55 23.6)"/><path d="M1240 828c0-4.42 3.58-8 8-8h84.64c4.4 0 8 3.58 8 8v52c-16.8-10.02-27.28-10.02-33.62-10.02-10.06 0-23.44 10.02-33.5 10.02-6.25 0-16.8 0-33.52-10.02z" stroke="#333" fill="#d1bcd2"/><use xlink:href="#v" transform="matrix(1,0,0,1,1245,825) translate(26.525 23.6)"/><path d="M1380 788c0-4.42 3.58-8 8-8h84c4.42 0 8 3.58 8 8v61.54c-16.7-11.6-27.1-11.6-33.4-11.6-10 0-23.3 11.6-33.3 11.6-6.2 0-16.7 0-33.3-11.6z" stroke="#333" fill="#d1bcd2"/><use xlink:href="#w" transform="matrix(1,0,0,1,1385,785) translate(8.024999999999999 27.6)"/><use xlink:href="#x" transform="matrix(1,0,0,1,1385,785) translate(60.025 27.6)"/><path d="M1081 814.86h27c6.63 0 12-5.37 12-12V732c0-6.63 5.37-12 12-12h11.12" stroke="#333" fill="none"/><path d="M1081 815.36h-.5v-1h.5z" fill="#333"/><path d="M1157.88 720l-14.26 4.64v-9.28z" stroke="#333" fill="#333"/><path d="M1160 819v-24.2c0-1.55 1.26-2.8 2.82-2.8 1.55 0 2.8-1.27 2.8-2.83v-8.3" stroke="#333" fill="none"/><path d="M1160.5 819.5h-1v-.5h1z" fill="#333"/><path d="M1165.63 766.1l4.64 14.26H1161z" stroke="#333" fill="#333"/><path d="M1290.32 819v-10.55c0-6.63-5.37-12-12-12h-37.76c-3.68 0-6.67-3-6.67-6.67" stroke="#333" fill="none"/><path d="M1290.82 819.5h-1v-.5h1z" fill="#333"/><path d="M1233.9 775l4.63 14.28h-9.27z" stroke="#333" fill="#333"/><path d="M1430 779v-47c0-6.63-5.37-12-12-12h-81.12" stroke="#333" fill="none"/><path d="M1430.5 779.5h-1v-.5h1z" fill="#333"/><path d="M1322.12 720l14.26-4.64v9.28z" stroke="#333" fill="#333"/><path d="M1500 688c0-4.42 3.58-8 8-8h84c4.42 0 8 3.58 8 8v72c-16.7-13.36-27.1-13.36-33.4-13.36-10 0-23.3 13.36-33.3 13.36-6.2 0-16.7 0-33.3-13.36z" stroke="#333" fill="#d1bcd2"/><use xlink:href="#y" transform="matrix(1,0,0,1,1505,685) translate(23.025 21.299999999999997)"/><use xlink:href="#x" transform="matrix(1,0,0,1,1505,685) translate(43.025 42.9)"/><path d="M820 848c0-4.42 3.58-8 8-8h64c4.42 0 8 3.58 8 8v44c0 4.42-3.58 8-8 8h-64c-4.42 0-8-3.58-8-8z" stroke="#333" fill="#ffdba9"/><path d="M828 840v60m64-60v60" stroke="#333" fill="none"/><use xlink:href="#z" transform="matrix(1,0,0,1,835,845) translate(1.0499999999999972 28.6)"/><path d="M978.36 836.07h-26.68c-6.63 0-12 5.37-12 12V858c0 6.63-5.37 12-12 12h-10.8" stroke="#333" fill="none"/><path d="M978.86 836.57h-.5v-1h.5z" fill="#333"/><path d="M902.12 870l14.26-4.64v9.28z" stroke="#333" fill="#333"/><path d="M700 908c0-4.42 3.58-8 8-8h64c4.42 0 8 3.58 8 8v52c-13.36-10.02-21.68-10.02-26.72-10.02-8 0-18.64 10.02-26.64 10.02-4.96 0-13.36 0-26.64-10.02z" stroke="#333" fill="#d1bcd2"/><use xlink:href="#A" transform="matrix(1,0,0,1,705,905) translate(3.0749999999999957 23.6)"/><path d="M819.66 895.3h-9.5c-5.43 0-9.83 4.4-9.83 9.84v6.38c0 1.9-1.54 3.45-3.45 3.45" stroke="#333" fill="none"/><path d="M820.16 895.3l.34.5h-.85v-1h.4z" fill="#333"/><path d="M782.12 914.97l14.26-4.64v9.27z" stroke="#333" fill="#333"/><path d="M1029.68 926.08c0-4.42 3.58-8 8-8h64c4.42 0 8 3.58 8 8v55.84c-13.36-10.66-21.68-10.66-26.72-10.66-8 0-18.64 10.66-26.64 10.66-4.96 0-13.36 0-26.64-10.66z" stroke="#333" fill="#d1bcd2"/><use xlink:href="#B" transform="matrix(1,0,0,1,1034.681998777506,923.08) translate(8.075 14.799999999999999)"/><use xlink:href="#C" transform="matrix(1,0,0,1,1034.681998777506,923.08) translate(7.574999999999996 36.4)"/><path d="M1110.93 871.73v19.1c0 2.07-1.67 3.75-3.74 3.75-2.1 0-3.76 1.67-3.76 3.74v3.22" stroke="#333" fill="none"/><path d="M1111.43 871.5v.24h-1v-.78z" fill="#333"/><path d="M1103.44 916.3l-4.64-14.26h9.27z" stroke="#333" fill="#333"/><path d="M1240 926.08c0-4.42 3.58-8 8-8h64c4.42 0 8 3.58 8 8v44c0 4.42-3.58 8-8 8h-64c-4.42 0-8-3.58-8-8z" stroke="#333" fill="#ffdba9"/><path d="M1248 918.08v60m64-60v60" stroke="#333" fill="none"/><use xlink:href="#z" transform="matrix(1,0,0,1,1255,923.08) translate(1.0499999999999972 28.6)"/><path d="M1180 1024.16c0-4.42 3.58-8 8-8h64c4.42 0 8 3.58 8 8v52c-13.36-10.02-21.68-10.02-26.72-10.02-8 0-18.64 10.02-26.64 10.02-4.96 0-13.36 0-26.64-10.02z" stroke="#333" fill="#d1bcd2"/><use xlink:href="#A" transform="matrix(1,0,0,1,1185,1021.1600000000001) translate(3.0749999999999957 23.6)"/><path d="M1280 917.08v-21.75" stroke="#333" fill="none"/><path d="M1280.5 917.58h-1v-.5h1z" fill="#333"/><path d="M1280 880.57l4.64 14.26h-9.28z" stroke="#333" fill="#333"/><path d="M1220 1015.16v-6.04c0-6.63 5.37-12 12-12h45.84c1.2 0 2.16-.97 2.16-2.16" stroke="#333" fill="none"/><path d="M1220.5 1015.66h-1v-.5h1z" fill="#333"/><path d="M1280 980.2l4.64 14.26h-9.28z" stroke="#333" fill="#333"/><path d="M1499 720.14h-162.12" stroke="#333" fill="none"/><path d="M1499.5 720.64h-.5v-1h.5z" fill="#333"/><path d="M1322.12 720.14l14.26-4.64v9.27z" stroke="#333" fill="#333"/><path d="M979.36 708c0-4.42 3.6-8 8-8H1072c4.42 0 8 3.58 8 8v61.54c-16.8-11.6-27.27-11.6-33.6-11.6-10.08 0-23.46 11.6-33.52 11.6-6.24 0-16.8 0-33.52-11.6z" stroke="#333" fill="#d1bcd2"/><use xlink:href="#D" transform="matrix(1,0,0,1,984.3639975550118,705) translate(26.549999999999997 16.799999999999997)"/><use xlink:href="#E" transform="matrix(1,0,0,1,984.3639975550118,705) translate(20.074999999999996 38.4)"/><path d="M1081 734.88h62.12" stroke="#333" fill="none"/><path d="M1081 735.38h-.5v-1h.5z" fill="#333"/><path d="M1157.88 734.88l-14.26 4.64v-9.27z" stroke="#333" fill="#333"/><path d="M978.36 734.88H822.24" stroke="#333" fill="none"/><path d="M978.86 735.38h-.5v-1h.5z" fill="#333"/><path d="M820.25 722.33l6.8 13.37-9.15 1.45z" stroke="#333" fill="#333"/><path d="M600 888c0 6.63-26.86 12-60 12s-60-5.37-60-12v-96c0-6.63 26.86-12 60-12s60 5.37 60 12z" stroke="#333" fill="#ccc"/><path d="M600 792c0 6.63-26.86 12-60 12s-60-5.37-60-12" stroke="#333" fill="none"/><use xlink:href="#F" transform="matrix(1,0,0,1,485,809) translate(21.049999999999997 35.8)"/><use xlink:href="#G" transform="matrix(1,0,0,1,485,809) translate(29.049999999999997 57.4)"/><path d="M601 840h176.68c6.63 0 12-5.37 12-12v-1.23c0-6.63 5.37-12 12-12h160.8" stroke="#333" fill="none"/><path d="M601 840.5h-.5v-1h.5z" fill="#333"/><path d="M977.25 814.77l-14.27 4.63v-9.27z" stroke="#333" fill="#333"/><path d="M601 840h127c6.63 0 12 5.37 12 12v31.12" stroke="#333" fill="none"/><path d="M601 840.5h-.5v-1h.5z" fill="#333"/><path d="M740 897.88l-4.64-14.26h9.28z" stroke="#333" fill="#333"/><path d="M540 901v103.84c0 6.62 5.37 12 12 12h505.68c6.63 0 12-5.38 12-12v-11.62" stroke="#333" fill="none"/><path d="M540 900.5l.5-.02v.53h-1v-.52z" fill="#333"/><path d="M1069.68 978.45l4.64 14.27h-9.27z" stroke="#333" fill="#333"/><path d="M1160 875.73V1048c0 6.63-5.37 12-12 12H509.06c-6.63 0-12-5.37-12-12V913.18" stroke="#333" fill="none"/><path d="M1160.5 875.74h-1v-.33l1-.35z" fill="#333"/><path d="M497.06 898.42l4.64 14.26h-9.27z" stroke="#333" fill="#333"/><defs><path fill="#a9afb8" d="M76-208v77h127v40H76V0H24v-248h183v40H76" id="H"/><path fill="#a9afb8" d="M25 0v-261h50V0H25" id="I"/><path fill="#a9afb8" d="M110-194c64 0 96 36 96 99 0 64-35 99-97 99-61 0-95-36-95-99 0-62 34-99 96-99zm-1 164c35 0 45-28 45-65 0-40-10-65-43-65-34 0-45 26-45 65 0 36 10 65 43 65" id="J"/><path fill="#a9afb8" d="M231 0h-52l-39-155L100 0H48L-1-190h46L77-45c9-52 24-97 36-145h53l37 145 32-145h46" id="K"/><path fill="#a9afb8" d="M190-63c-7 42-38 67-86 67-59 0-84-38-90-98-12-110 154-137 174-36l-49 2c-2-19-15-32-35-32-30 0-35 28-38 64-6 74 65 87 74 30" id="L"/><path fill="#a9afb8" d="M114-157C55-157 80-60 75 0H25v-261h50l-1 109c12-26 28-41 61-42 86-1 58 113 63 194h-50c-7-57 23-157-34-157" id="M"/><path fill="#a9afb8" d="M133-34C117-15 103 5 69 4 32 3 11-16 11-54c-1-60 55-63 116-61 1-26-3-47-28-47-18 1-26 9-28 27l-52-2c7-38 36-58 82-57s74 22 75 68l1 82c-1 14 12 18 25 15v27c-30 8-71 5-69-32zm-48 3c29 0 43-24 42-57-32 0-66-3-65 30 0 17 8 27 23 27" id="N"/><path fill="#a9afb8" d="M135-150c-39-12-60 13-60 57V0H25l-1-190h47c2 13-1 29 3 40 6-28 27-53 61-41v41" id="O"/><path fill="#a9afb8" d="M115-3C79 11 28 4 28-45v-112H4v-33h27l15-45h31v45h36v33H77v99c-1 23 16 31 38 25v30" id="P"/><g id="a"><use transform="matrix(0.0728395061728395,0,0,0.0728395061728395,0,0)" xlink:href="#H"/><use transform="matrix(0.0728395061728395,0,0,0.0728395061728395,15.95185185185185,0)" xlink:href="#I"/><use transform="matrix(0.0728395061728395,0,0,0.0728395061728395,23.235802469135802,0)" xlink:href="#J"/><use transform="matrix(0.0728395061728395,0,0,0.0728395061728395,39.187654320987654,0)" xlink:href="#K"/><use transform="matrix(0.0728395061728395,0,0,0.0728395061728395,59.582716049382704,0)" xlink:href="#L"/><use transform="matrix(0.0728395061728395,0,0,0.0728395061728395,74.15061728395061,0)" xlink:href="#M"/><use transform="matrix(0.0728395061728395,0,0,0.0728395061728395,90.10246913580247,0)" xlink:href="#N"/><use transform="matrix(0.0728395061728395,0,0,0.0728395061728395,104.67037037037036,0)" xlink:href="#O"/><use transform="matrix(0.0728395061728395,0,0,0.0728395061728395,114.8679012345679,0)" xlink:href="#P"/></g><path fill="#a9afb8" d="M30-248c87 1 191-15 191 75 0 78-77 80-158 76V0H30v-248zm33 125c57 0 124 11 124-50 0-59-68-47-124-48v98" id="Q"/><path fill="#a9afb8" d="M233-177c-1 41-23 64-60 70L243 0h-38l-65-103H63V0H30v-248c88 3 205-21 203 71zM63-129c60-2 137 13 137-47 0-61-80-42-137-45v92" id="R"/><path fill="#a9afb8" d="M33 0v-248h34V0H33" id="S"/><path fill="#a9afb8" d="M137-103V0h-34v-103L8-248h37l75 118 75-118h37" id="T"/><path fill="#a9afb8" d="M205 0l-28-72H64L36 0H1l101-248h38L239 0h-34zm-38-99l-47-123c-12 45-31 82-46 123h93" id="U"/><path fill="#a9afb8" d="M240 0l2-218c-23 76-54 145-80 218h-23L58-218 59 0H30v-248h44l77 211c21-75 51-140 76-211h43V0h-30" id="V"/><g id="b"><use transform="matrix(0.04248971193415638,0,0,0.04248971193415638,0,0)" xlink:href="#Q"/><use transform="matrix(0.04248971193415638,0,0,0.04248971193415638,10.19753086419753,0)" xlink:href="#R"/><use transform="matrix(0.04248971193415638,0,0,0.04248971193415638,21.20236625514403,0)" xlink:href="#S"/><use transform="matrix(0.04248971193415638,0,0,0.04248971193415638,25.45133744855967,0)" xlink:href="#T"/><use transform="matrix(0.04248971193415638,0,0,0.04248971193415638,34.501646090534976,0)" xlink:href="#U"/><use transform="matrix(0.04248971193415638,0,0,0.04248971193415638,44.69917695473251,0)" xlink:href="#V"/></g><path fill="#a9afb8" d="M33 0v-38h34V0H33" id="W"/><path fill="#a9afb8" d="M143 4C61 4 22-44 18-125c-5-107 100-154 193-111 17 8 29 25 37 43l-32 9c-13-25-37-40-76-40-61 0-88 39-88 99 0 61 29 100 91 101 35 0 62-11 79-27v-45h-74v-28h105v86C228-13 192 4 143 4" id="X"/><g id="c"><use transform="matrix(0.04248971193415638,0,0,0.04248971193415638,0,0)" xlink:href="#W"/><use transform="matrix(0.04248971193415638,0,0,0.04248971193415638,4.248971193415637,0)" xlink:href="#X"/><use transform="matrix(0.04248971193415638,0,0,0.04248971193415638,16.14609053497942,0)" xlink:href="#U"/><use transform="matrix(0.04248971193415638,0,0,0.04248971193415638,26.343621399176953,0)" xlink:href="#R"/><use transform="matrix(0.04248971193415638,0,0,0.04248971193415638,37.34845679012346,0)" xlink:href="#X"/></g><path fill="#a9afb8" d="M87 75C49 33 22-17 22-94c0-76 28-126 65-167h31c-38 41-64 92-64 168S80 34 118 75H87" id="Y"/><path fill="#a9afb8" d="M27 0v-27h64v-190l-56 39v-29l58-41h29v221h61V0H27" id="Z"/><path fill="#a9afb8" d="M134-131c28 9 52 24 51 62-1 50-34 73-85 73S17-19 16-69c0-36 21-54 49-61-75-25-45-126 34-121 46 3 78 18 79 63 0 33-17 51-44 57zm-34-11c31 1 46-15 46-44 0-28-17-43-47-42-29 0-46 13-45 42 1 28 16 44 46 44zm1 122c35 0 51-18 51-52 0-30-18-46-53-46-33 0-51 17-51 47 0 34 19 51 53 51" id="aa"/><path fill="#a9afb8" d="M101-251c68 0 85 55 85 127S166 4 100 4C33 4 14-52 14-124c0-73 17-127 87-127zm-1 229c47 0 54-49 54-102s-4-102-53-102c-51 0-55 48-55 102 0 53 5 102 54 102" id="ab"/><path fill="#a9afb8" d="M101-251c82-7 93 87 43 132L82-64C71-53 59-42 53-27h129V0H18c2-99 128-94 128-182 0-28-16-43-45-43s-46 15-49 41l-32-3c6-41 34-60 81-64" id="ac"/><path fill="#a9afb8" d="M110-160c48 1 74 30 74 79 0 53-28 85-80 85-65 0-83-55-86-122-5-90 50-162 133-122 14 7 22 21 27 39l-31 6c-5-40-67-38-82-6-9 19-15 44-15 74 11-20 30-34 60-33zm-7 138c34 0 49-23 49-58s-16-56-50-56c-29 0-50 16-49 49 1 36 15 65 50 65" id="ad"/><path fill="#a9afb8" d="M64 0c3-98 48-159 88-221H18v-27h164v26C143-157 98-101 97 0H64" id="ae"/><path fill="#a9afb8" d="M33-261c38 41 65 92 65 168S71 34 33 75H2C39 34 66-17 66-93S39-220 2-261h31" id="af"/><g id="d"><use transform="matrix(0.04248971193415638,0,0,0.04248971193415638,0,0)" xlink:href="#Y"/><use transform="matrix(0.04248971193415638,0,0,0.04248971193415638,5.056275720164609,0)" xlink:href="#R"/><use transform="matrix(0.04248971193415638,0,0,0.04248971193415638,16.06111111111111,0)" xlink:href="#U"/><use transform="matrix(0.04248971193415638,0,0,0.04248971193415638,26.25864197530864,0)" xlink:href="#Z"/><use transform="matrix(0.04248971193415638,0,0,0.04248971193415638,34.75658436213992,0)" xlink:href="#aa"/><use transform="matrix(0.04248971193415638,0,0,0.04248971193415638,43.254526748971195,0)" xlink:href="#Z"/><use transform="matrix(0.04248971193415638,0,0,0.04248971193415638,50.60524691358025,0)" xlink:href="#Z"/><use transform="matrix(0.04248971193415638,0,0,0.04248971193415638,59.10318930041153,0)" xlink:href="#ab"/><use transform="matrix(0.04248971193415638,0,0,0.04248971193415638,67.6011316872428,0)" xlink:href="#ac"/><use transform="matrix(0.04248971193415638,0,0,0.04248971193415638,76.09907407407407,0)" xlink:href="#ad"/><use transform="matrix(0.04248971193415638,0,0,0.04248971193415638,84.59701646090534,0)" xlink:href="#ab"/><use transform="matrix(0.04248971193415638,0,0,0.04248971193415638,93.0949588477366,0)" xlink:href="#Z"/><use transform="matrix(0.04248971193415638,0,0,0.04248971193415638,101.59290123456788,0)" xlink:href="#ab"/><use transform="matrix(0.04248971193415638,0,0,0.04248971193415638,110.09084362139916,0)" xlink:href="#ab"/><use transform="matrix(0.04248971193415638,0,0,0.04248971193415638,118.58878600823041,0)" xlink:href="#ae"/><use transform="matrix(0.04248971193415638,0,0,0.04248971193415638,127.08672839506168,0)" xlink:href="#ab"/><use transform="matrix(0.04248971193415638,0,0,0.04248971193415638,135.58467078189295,0)" xlink:href="#af"/></g><path fill="#a9afb8" d="M32 76v-337h29V76H32" id="ag"/><use transform="matrix(0.04248971193415638,0,0,0.04248971193415638,0,0)" xlink:href="#ag" id="e"/><path fill="#a9afb8" d="M153-248C145-148 188 4 80 4 36 3 13-21 6-62l32-5c4 25 16 42 43 43 27 0 39-20 39-49v-147H72v-28h81" id="ah"/><path fill="#a9afb8" d="M84 4C-5 8 30-112 23-190h32v120c0 31 7 50 39 49 72-2 45-101 50-169h31l1 190h-30c-1-10 1-25-2-33-11 22-28 36-60 37" id="ai"/><path fill="#a9afb8" d="M117-194c89-4 53 116 60 194h-32v-121c0-31-8-49-39-48C34-167 62-67 57 0H25l-1-190h30c1 10-1 24 2 32 11-22 29-35 61-36" id="aj"/><path fill="#a9afb8" d="M100-194c63 0 86 42 84 106H49c0 40 14 67 53 68 26 1 43-12 49-29l28 8c-11 28-37 45-77 45C44 4 14-33 15-96c1-61 26-98 85-98zm52 81c6-60-76-77-97-28-3 7-6 17-6 28h103" id="ak"/><g id="f"><use transform="matrix(0.04248971193415638,0,0,0.04248971193415638,0,0)" xlink:href="#ah"/><use transform="matrix(0.04248971193415638,0,0,0.04248971193415638,7.648148148148148,0)" xlink:href="#ai"/><use transform="matrix(0.04248971193415638,0,0,0.04248971193415638,16.14609053497942,0)" xlink:href="#aj"/><use transform="matrix(0.04248971193415638,0,0,0.04248971193415638,24.644032921810698,0)" xlink:href="#ak"/></g><path fill="#a9afb8" d="M99-251c64 0 84 50 84 122C183-37 130 33 47-8c-14-7-20-23-25-40l30-5c6 39 69 39 84 7 9-19 16-44 16-74-10 22-31 35-62 35-49 0-73-33-73-83 0-54 28-83 82-83zm-1 141c31-1 51-18 51-49 0-36-14-67-51-67-34 0-49 23-49 58 0 34 15 58 49 58" id="al"/><path fill="#a9afb8" d="M68-38c1 34 0 65-14 84H32c9-13 17-26 17-46H33v-38h35" id="am"/><g id="g"><use transform="matrix(0.04248971193415638,0,0,0.04248971193415638,0,0)" xlink:href="#Z"/><use transform="matrix(0.04248971193415638,0,0,0.04248971193415638,8.497942386831275,0)" xlink:href="#al"/><use transform="matrix(0.04248971193415638,0,0,0.04248971193415638,16.99588477366255,0)" xlink:href="#am"/></g><g id="h"><use transform="matrix(0.04248971193415638,0,0,0.04248971193415638,0,0)" xlink:href="#ac"/><use transform="matrix(0.04248971193415638,0,0,0.04248971193415638,8.497942386831275,0)" xlink:href="#ab"/><use transform="matrix(0.04248971193415638,0,0,0.04248971193415638,16.99588477366255,0)" xlink:href="#ac"/><use transform="matrix(0.04248971193415638,0,0,0.04248971193415638,25.493827160493822,0)" xlink:href="#Z"/></g><path fill="#333" d="M185-189c-5-48-123-54-124 2 14 75 158 14 163 119 3 78-121 87-175 55-17-10-28-26-33-46l33-7c5 56 141 63 141-1 0-78-155-14-162-118-5-82 145-84 179-34 5 7 8 16 11 25" id="an"/><path fill="#333" d="M59-47c-2 24 18 29 38 22v24C64 9 27 4 27-40v-127H5v-23h24l9-43h21v43h35v23H59v120" id="ao"/><path fill="#333" d="M141-36C126-15 110 5 73 4 37 3 15-17 15-53c-1-64 63-63 125-63 3-35-9-54-41-54-24 1-41 7-42 31l-33-3c5-37 33-52 76-52 45 0 72 20 72 64v82c-1 20 7 32 28 27v20c-31 9-61-2-59-35zM48-53c0 20 12 33 32 33 41-3 63-29 60-74-43 2-92-5-92 41" id="ap"/><path fill="#333" d="M114-163C36-179 61-72 57 0H25l-1-190h30c1 12-1 29 2 39 6-27 23-49 58-41v29" id="aq"/><g id="i"><use transform="matrix(0.05,0,0,0.05,0,0)" xlink:href="#an"/><use transform="matrix(0.05,0,0,0.05,12,0)" xlink:href="#ao"/><use transform="matrix(0.05,0,0,0.05,17,0)" xlink:href="#ap"/><use transform="matrix(0.05,0,0,0.05,27,0)" xlink:href="#aq"/><use transform="matrix(0.05,0,0,0.05,32.95,0)" xlink:href="#ao"/></g><path fill="#333" d="M63-220v92h138v28H63V0H30v-248h175v28H63" id="ar"/><path fill="#333" d="M100-194c62-1 85 37 85 99 1 63-27 99-86 99S16-35 15-95c0-66 28-99 85-99zM99-20c44 1 53-31 53-75 0-43-8-75-51-75s-53 32-53 75 10 74 51 75" id="as"/><path fill="#333" d="M210-169c-67 3-38 105-44 169h-31v-121c0-29-5-50-35-48C34-165 62-65 56 0H25l-1-190h30c1 10-1 24 2 32 10-44 99-50 107 0 11-21 27-35 58-36 85-2 47 119 55 194h-31v-121c0-29-5-49-35-48" id="at"/><path fill="#333" d="M30-248c87 1 191-15 191 75 0 78-77 80-158 76V0H30v-248zm33 125c57 0 124 11 124-50 0-59-68-47-124-48v98" id="au"/><path fill="#333" d="M177-190C167-65 218 103 67 71c-23-6-38-20-44-43l32-5c15 47 100 32 89-28v-30C133-14 115 1 83 1 29 1 15-40 15-95c0-56 16-97 71-98 29-1 48 16 59 35 1-10 0-23 2-32h30zM94-22c36 0 50-32 50-73 0-42-14-75-50-75-39 0-46 34-46 75s6 73 46 73" id="av"/><path fill="#333" d="M100-194c63 0 86 42 84 106H49c0 40 14 67 53 68 26 1 43-12 49-29l28 8c-11 28-37 45-77 45C44 4 14-33 15-96c1-61 26-98 85-98zm52 81c6-60-76-77-97-28-3 7-6 17-6 28h103" id="aw"/><g id="j"><use transform="matrix(0.05,0,0,0.05,0,0)" xlink:href="#ar"/><use transform="matrix(0.05,0,0,0.05,10.950000000000001,0)" xlink:href="#as"/><use transform="matrix(0.05,0,0,0.05,20.950000000000003,0)" xlink:href="#aq"/><use transform="matrix(0.05,0,0,0.05,26.900000000000002,0)" xlink:href="#at"/><use transform="matrix(0.05,0,0,0.05,41.85,0)" xlink:href="#au"/><use transform="matrix(0.05,0,0,0.05,53.85,0)" xlink:href="#ap"/><use transform="matrix(0.05,0,0,0.05,63.85,0)" xlink:href="#av"/><use transform="matrix(0.05,0,0,0.05,73.85,0)" xlink:href="#aw"/></g><path fill="#333" d="M205 0l-28-72H64L36 0H1l101-248h38L239 0h-34zm-38-99l-47-123c-12 45-31 82-46 123h93" id="ax"/><path fill="#333" d="M84 4C-5 8 30-112 23-190h32v120c0 31 7 50 39 49 72-2 45-101 50-169h31l1 190h-30c-1-10 1-25-2-33-11 22-28 36-60 37" id="ay"/><path fill="#333" d="M106-169C34-169 62-67 57 0H25v-261h32l-1 103c12-21 28-36 61-36 89 0 53 116 60 194h-32v-121c2-32-8-49-39-48" id="az"/><g id="k"><use transform="matrix(0.05,0,0,0.05,0,0)" xlink:href="#ax"/><use transform="matrix(0.05,0,0,0.05,12,0)" xlink:href="#ay"/><use transform="matrix(0.05,0,0,0.05,22,0)" xlink:href="#ao"/><use transform="matrix(0.05,0,0,0.05,27,0)" xlink:href="#az"/></g><path fill="#333" d="M30 0v-248h33v221h125V0H30" id="aA"/><path fill="#333" d="M24-231v-30h32v30H24zM24 0v-190h32V0H24" id="aB"/><path fill="#333" d="M117-194c89-4 53 116 60 194h-32v-121c0-31-8-49-39-48C34-167 62-67 57 0H25l-1-190h30c1 10-1 24 2 32 11-22 29-35 61-36" id="aC"/><g id="l"><use transform="matrix(0.05,0,0,0.05,0,0)" xlink:href="#aA"/><use transform="matrix(0.05,0,0,0.05,10,0)" xlink:href="#as"/><use transform="matrix(0.05,0,0,0.05,20,0)" xlink:href="#av"/><use transform="matrix(0.05,0,0,0.05,30,0)" xlink:href="#aB"/><use transform="matrix(0.05,0,0,0.05,33.95,0)" xlink:href="#aC"/></g><path fill="#333" d="M33 0v-248h34V0H33" id="aD"/><path fill="#333" d="M232-93c-1 65-40 97-104 97C67 4 28-28 28-90v-158h33c8 89-33 224 67 224 102 0 64-133 71-224h33v155" id="aE"/><path fill="#333" d="M115-194c55 1 70 41 70 98S169 2 115 4C84 4 66-9 55-30l1 105H24l-1-265h31l2 30c10-21 28-34 59-34zm-8 174c40 0 45-34 45-75s-6-73-45-74c-42 0-51 32-51 76 0 43 10 73 51 73" id="aF"/><g id="m"><use transform="matrix(0.05,0,0,0.05,0,0)" xlink:href="#an"/><use transform="matrix(0.05,0,0,0.05,12,0)" xlink:href="#aD"/><use transform="matrix(0.05,0,0,0.05,17,0)" xlink:href="#av"/><use transform="matrix(0.05,0,0,0.05,27,0)" xlink:href="#aC"/><use transform="matrix(0.05,0,0,0.05,37,0)" xlink:href="#aE"/><use transform="matrix(0.05,0,0,0.05,49.95,0)" xlink:href="#aF"/></g><path fill="#333" d="M135-143c-3-34-86-38-87 0 15 53 115 12 119 90S17 21 10-45l28-5c4 36 97 45 98 0-10-56-113-15-118-90-4-57 82-63 122-42 12 7 21 19 24 35" id="aG"/><g id="n"><use transform="matrix(0.05,0,0,0.05,0,0)" xlink:href="#aE"/><use transform="matrix(0.05,0,0,0.05,12.950000000000001,0)" xlink:href="#aG"/><use transform="matrix(0.05,0,0,0.05,21.950000000000003,0)" xlink:href="#aw"/><use transform="matrix(0.05,0,0,0.05,31.950000000000003,0)" xlink:href="#aq"/></g><path fill="#333" d="M30-248c118-7 216 8 213 122C240-48 200 0 122 0H30v-248zM63-27c89 8 146-16 146-99s-60-101-146-95v194" id="aH"/><path fill="#333" d="M160-131c35 5 61 23 61 61C221 17 115-2 30 0v-248c76 3 177-17 177 60 0 33-19 50-47 57zm-97-11c50-1 110 9 110-42 0-47-63-36-110-37v79zm0 115c55-2 124 14 124-45 0-56-70-42-124-44v89" id="aI"/><g id="o"><use transform="matrix(0.05,0,0,0.05,0,0)" xlink:href="#aH"/><use transform="matrix(0.05,0,0,0.05,12.950000000000001,0)" xlink:href="#aI"/></g><path fill="#333" d="M101-234c-31-9-42 10-38 44h38v23H63V0H32v-167H5v-23h27c-7-52 17-82 69-68v24" id="aJ"/><g id="p"><use transform="matrix(0.05,0,0,0.05,0,0)" xlink:href="#ax"/><use transform="matrix(0.05,0,0,0.05,12,0)" xlink:href="#aJ"/><use transform="matrix(0.05,0,0,0.05,17,0)" xlink:href="#ao"/><use transform="matrix(0.05,0,0,0.05,22,0)" xlink:href="#aw"/><use transform="matrix(0.05,0,0,0.05,32,0)" xlink:href="#aq"/></g><g id="q"><use transform="matrix(0.05,0,0,0.05,0,0)" xlink:href="#an"/><use transform="matrix(0.05,0,0,0.05,12,0)" xlink:href="#aD"/><use transform="matrix(0.05,0,0,0.05,17,0)" xlink:href="#av"/><use transform="matrix(0.05,0,0,0.05,27,0)" xlink:href="#aC"/><use transform="matrix(0.05,0,0,0.05,37,0)" xlink:href="#ay"/><use transform="matrix(0.05,0,0,0.05,47,0)" xlink:href="#aF"/></g><path fill="#333" d="M197 0v-115H63V0H30v-248h33v105h134v-105h34V0h-34" id="aK"/><g id="r"><use transform="matrix(0.05,0,0,0.05,0,0)" xlink:href="#aK"/><use transform="matrix(0.05,0,0,0.05,12.950000000000001,0)" xlink:href="#as"/><use transform="matrix(0.05,0,0,0.05,22.950000000000003,0)" xlink:href="#at"/><use transform="matrix(0.05,0,0,0.05,37.900000000000006,0)" xlink:href="#aw"/><use transform="matrix(0.05,0,0,0.05,47.900000000000006,0)" xlink:href="#au"/><use transform="matrix(0.05,0,0,0.05,59.900000000000006,0)" xlink:href="#ap"/><use transform="matrix(0.05,0,0,0.05,69.9,0)" xlink:href="#av"/><use transform="matrix(0.05,0,0,0.05,79.9,0)" xlink:href="#aw"/></g><path fill="#333" d="M87 75C49 33 22-17 22-94c0-76 28-126 65-167h31c-38 41-64 92-64 168S80 34 118 75H87" id="aL"/><path fill="#333" d="M30 0v-248h187v28H63v79h144v27H63v87h162V0H30" id="aM"/><path fill="#333" d="M233-177c-1 41-23 64-60 70L243 0h-38l-65-103H63V0H30v-248c88 3 205-21 203 71zM63-129c60-2 137 13 137-47 0-61-80-42-137-45v92" id="aN"/><path fill="#333" d="M195 0l-74-108L45 0H8l94-129-87-119h37l69 98 67-98h37l-84 118L233 0h-38" id="aO"/><path fill="#333" d="M33-261c38 41 65 92 65 168S71 34 33 75H2C39 34 66-17 66-93S39-220 2-261h31" id="aP"/><g id="s"><use transform="matrix(0.05,0,0,0.05,0,0)" xlink:href="#aL"/><use transform="matrix(0.05,0,0,0.05,5.95,0)" xlink:href="#aE"/><use transform="matrix(0.05,0,0,0.05,18.900000000000002,0)" xlink:href="#an"/><use transform="matrix(0.05,0,0,0.05,30.900000000000002,0)" xlink:href="#aM"/><use transform="matrix(0.05,0,0,0.05,42.900000000000006,0)" xlink:href="#aN"/><use transform="matrix(0.05,0,0,0.05,55.85,0)" xlink:href="#aO"/><use transform="matrix(0.05,0,0,0.05,67.85000000000001,0)" xlink:href="#aP"/></g><path fill="#333" d="M179-190L93 31C79 59 56 82 12 73V49c39 6 53-20 64-50L1-190h34L92-34l54-156h33" id="aQ"/><g id="t"><use transform="matrix(0.05,0,0,0.05,0,0)" xlink:href="#aI"/><use transform="matrix(0.05,0,0,0.05,12,0)" xlink:href="#ay"/><use transform="matrix(0.05,0,0,0.05,22,0)" xlink:href="#aQ"/></g><path fill="#333" d="M24 0v-261h32V0H24" id="aR"/><g id="u"><use transform="matrix(0.05,0,0,0.05,0,0)" xlink:href="#an"/><use transform="matrix(0.05,0,0,0.05,12,0)" xlink:href="#aw"/><use transform="matrix(0.05,0,0,0.05,22,0)" xlink:href="#aR"/><use transform="matrix(0.05,0,0,0.05,25.950000000000003,0)" xlink:href="#aR"/></g><g id="v"><use transform="matrix(0.05,0,0,0.05,0,0)" xlink:href="#aN"/><use transform="matrix(0.05,0,0,0.05,12.950000000000001,0)" xlink:href="#aw"/><use transform="matrix(0.05,0,0,0.05,22.950000000000003,0)" xlink:href="#aC"/><use transform="matrix(0.05,0,0,0.05,32.95,0)" xlink:href="#ao"/></g><path fill="#333" d="M115-194c53 0 69 39 70 98 0 66-23 100-70 100C84 3 66-7 56-30L54 0H23l1-261h32v101c10-23 28-34 59-34zm-8 174c40 0 45-34 45-75 0-40-5-75-45-74-42 0-51 32-51 76 0 43 10 73 51 73" id="aS"/><g id="w"><use transform="matrix(0.05,0,0,0.05,0,0)" xlink:href="#ax"/><use transform="matrix(0.05,0,0,0.05,12,0)" xlink:href="#aS"/><use transform="matrix(0.05,0,0,0.05,22,0)" xlink:href="#as"/><use transform="matrix(0.05,0,0,0.05,32,0)" xlink:href="#ay"/><use transform="matrix(0.05,0,0,0.05,42,0)" xlink:href="#ao"/></g><g id="x"><use transform="matrix(0.05,0,0,0.05,0,0)" xlink:href="#aE"/><use transform="matrix(0.05,0,0,0.05,12.950000000000001,0)" xlink:href="#aG"/></g><path fill="#333" d="M212-179c-10-28-35-45-73-45-59 0-87 40-87 99 0 60 29 101 89 101 43 0 62-24 78-52l27 14C228-24 195 4 139 4 59 4 22-46 18-125c-6-104 99-153 187-111 19 9 31 26 39 46" id="aT"/><path fill="#333" d="M96-169c-40 0-48 33-48 73s9 75 48 75c24 0 41-14 43-38l32 2c-6 37-31 61-74 61-59 0-76-41-82-99-10-93 101-131 147-64 4 7 5 14 7 22l-32 3c-4-21-16-35-41-35" id="aU"/><g id="y"><use transform="matrix(0.05,0,0,0.05,0,0)" xlink:href="#aT"/><use transform="matrix(0.05,0,0,0.05,12.950000000000001,0)" xlink:href="#as"/><use transform="matrix(0.05,0,0,0.05,22.950000000000003,0)" xlink:href="#aC"/><use transform="matrix(0.05,0,0,0.05,32.95,0)" xlink:href="#ao"/><use transform="matrix(0.05,0,0,0.05,37.95,0)" xlink:href="#ap"/><use transform="matrix(0.05,0,0,0.05,47.95,0)" xlink:href="#aU"/><use transform="matrix(0.05,0,0,0.05,56.95,0)" xlink:href="#ao"/></g><path fill="#333" d="M85-194c31 0 48 13 60 33l-1-100h32l1 261h-30c-2-10 0-23-3-31C134-8 116 4 85 4 32 4 16-35 15-94c0-66 23-100 70-100zm9 24c-40 0-46 34-46 75 0 40 6 74 45 74 42 0 51-32 51-76 0-42-9-74-50-73" id="aV"/><path fill="#333" d="M141 0L90-78 38 0H4l68-98-65-92h35l48 74 47-74h35l-64 92 68 98h-35" id="aW"/><g id="z"><use transform="matrix(0.05,0,0,0.05,0,0)" xlink:href="#aT"/><use transform="matrix(0.05,0,0,0.05,12.950000000000001,0)" xlink:href="#ap"/><use transform="matrix(0.05,0,0,0.05,22.950000000000003,0)" xlink:href="#aq"/><use transform="matrix(0.05,0,0,0.05,28.900000000000002,0)" xlink:href="#aV"/><use transform="matrix(0.05,0,0,0.05,38.900000000000006,0)" xlink:href="#aW"/></g><g id="A"><use transform="matrix(0.05,0,0,0.05,0,0)" xlink:href="#aH"/><use transform="matrix(0.05,0,0,0.05,12.950000000000001,0)" xlink:href="#aw"/><use transform="matrix(0.05,0,0,0.05,22.950000000000003,0)" xlink:href="#ao"/><use transform="matrix(0.05,0,0,0.05,27.950000000000003,0)" xlink:href="#ap"/><use transform="matrix(0.05,0,0,0.05,37.95,0)" xlink:href="#aB"/><use transform="matrix(0.05,0,0,0.05,41.900000000000006,0)" xlink:href="#aR"/><use transform="matrix(0.05,0,0,0.05,45.85000000000001,0)" xlink:href="#aG"/><use transform="matrix(0.05,0,0,0.05,54.85,0)" xlink:href="#aW"/></g><g id="B"><use transform="matrix(0.05,0,0,0.05,0,0)" xlink:href="#an"/><use transform="matrix(0.05,0,0,0.05,12,0)" xlink:href="#aw"/><use transform="matrix(0.05,0,0,0.05,22,0)" xlink:href="#aR"/><use transform="matrix(0.05,0,0,0.05,25.950000000000003,0)" xlink:href="#aR"/><use transform="matrix(0.05,0,0,0.05,29.899999999999995,0)" xlink:href="#aB"/><use transform="matrix(0.05,0,0,0.05,33.85,0)" xlink:href="#aC"/><use transform="matrix(0.05,0,0,0.05,43.85,0)" xlink:href="#av"/></g><g id="C"><use transform="matrix(0.05,0,0,0.05,0,0)" xlink:href="#aH"/><use transform="matrix(0.05,0,0,0.05,12.950000000000001,0)" xlink:href="#aw"/><use transform="matrix(0.05,0,0,0.05,22.950000000000003,0)" xlink:href="#ao"/><use transform="matrix(0.05,0,0,0.05,27.950000000000003,0)" xlink:href="#ap"/><use transform="matrix(0.05,0,0,0.05,37.95,0)" xlink:href="#aB"/><use transform="matrix(0.05,0,0,0.05,41.900000000000006,0)" xlink:href="#aR"/><use transform="matrix(0.05,0,0,0.05,45.85000000000001,0)" xlink:href="#aG"/></g><g id="D"><use transform="matrix(0.05,0,0,0.05,0,0)" xlink:href="#aE"/><use transform="matrix(0.05,0,0,0.05,12.950000000000001,0)" xlink:href="#aG"/><use transform="matrix(0.05,0,0,0.05,21.950000000000003,0)" xlink:href="#aw"/><use transform="matrix(0.05,0,0,0.05,31.950000000000003,0)" xlink:href="#aq"/></g><g id="E"><use transform="matrix(0.05,0,0,0.05,0,0)" xlink:href="#au"/><use transform="matrix(0.05,0,0,0.05,12,0)" xlink:href="#aq"/><use transform="matrix(0.05,0,0,0.05,17.95,0)" xlink:href="#as"/><use transform="matrix(0.05,0,0,0.05,27.950000000000003,0)" xlink:href="#aJ"/><use transform="matrix(0.05,0,0,0.05,32.95,0)" xlink:href="#aB"/><use transform="matrix(0.05,0,0,0.05,36.900000000000006,0)" xlink:href="#aR"/><use transform="matrix(0.05,0,0,0.05,40.85000000000001,0)" xlink:href="#aw"/></g><g id="F"><use transform="matrix(0.05,0,0,0.05,0,0)" xlink:href="#au"/><use transform="matrix(0.05,0,0,0.05,12,0)" xlink:href="#aq"/><use transform="matrix(0.05,0,0,0.05,17.95,0)" xlink:href="#as"/><use transform="matrix(0.05,0,0,0.05,27.950000000000003,0)" xlink:href="#aF"/><use transform="matrix(0.05,0,0,0.05,37.95,0)" xlink:href="#aw"/><use transform="matrix(0.05,0,0,0.05,47.95,0)" xlink:href="#aq"/><use transform="matrix(0.05,0,0,0.05,53.900000000000006,0)" xlink:href="#ao"/><use transform="matrix(0.05,0,0,0.05,58.900000000000006,0)" xlink:href="#aQ"/></g><g id="G"><use transform="matrix(0.05,0,0,0.05,0,0)" xlink:href="#aV"/><use transform="matrix(0.05,0,0,0.05,10,0)" xlink:href="#aw"/><use transform="matrix(0.05,0,0,0.05,20,0)" xlink:href="#ao"/><use transform="matrix(0.05,0,0,0.05,25,0)" xlink:href="#ap"/><use transform="matrix(0.05,0,0,0.05,35,0)" xlink:href="#aB"/><use transform="matrix(0.05,0,0,0.05,38.95,0)" xlink:href="#aR"/><use transform="matrix(0.05,0,0,0.05,42.900000000000006,0)" xlink:href="#aG"/></g></defs></g></svg>